Coordinates
version=1
nRows=10
nColumns=22
inDegrees=yes

Units are S.I. units (second, meters, Newtons, ...)
If the header above contains a line with 'inDegrees', this indicates whether rotational values are in degrees (yes) or radians (no).

endheader
time	pelvis_tilt	pelvis_list	pelvis_rotation	pelvis_tx	pelvis_ty	pelvis_tz	hip_flexion_r	hip_adduction_r	hip_rotation_r	knee_angle_r	ankle_angle_r	subtalar_angle_r	hip_flexion_l	hip_adduction_l	hip_rotation_l	knee_angle_l	ankle_angle_l	subtalar_angle_l	lumbar_extension	lumbar_bending	lumbar_rotation
      2.08000000	      5.87966551	      1.28682872	    156.49343957	     -0.26671011	      0.94434233	      0.78460330	     28.08965558	      4.11842631	    -32.15944399	    -31.91226641	      9.38137937	     -4.94529604	      8.79027853	    -11.90381337	      3.54714287	    -58.39515391	      0.71835927	      9.42921075	      0.16625462	     11.53812832	    -10.57654790
      2.09000000	      5.89227482	      1.33505866	    155.41872165	     -0.27218324	      0.94534352	      0.77662598	     27.32598663	      5.01865830	    -31.37504121	    -31.49619676	      9.70869618	     -4.91364045	      9.86128209	    -12.16505777	      4.07263161	    -59.13110397	      1.12792285	      8.40129420	      0.15330407	     11.61118133	    -10.28908103
      2.10000000	      5.90425877	      1.38594170	    154.33451284	     -0.27745089	      0.94637977	      0.76863671	     26.51866556	      5.92782720	    -30.54794044	    -31.01505476	     10.00268219	     -4.88472535	     10.88050670	    -12.42238545	      4.63285332	    -59.62588442	      1.56395981	      7.41565115	      0.13436133	     11.67507250	    -10.00474052
      2.11000000	      5.91866994	      1.43412372	    153.23921446	     -0.28251986	      0.94743206	      0.76063894	     25.67346291	      6.83799678	    -29.67806694	    -30.47422938	     10.26508274	     -4.85634001	     11.84740294	    -12.67242137	      5.21845122	    -59.88202318	      2.06127377	      6.44979541	      0.11395535	     11.72706629	     -9.72022091
      2.12000000	      5.93957525	      1.48231592	    152.13715121	     -0.28739920	      0.94848522	      0.75264268	     24.79220184	      7.74845396	    -28.77083227	    -29.87489439	     10.49626885	     -4.83109296	     12.76457273	    -12.92396916	      5.82087938	    -59.90776653	      2.63666152	      5.49285018	      0.09436075	     11.77374479	     -9.43964354
      2.13000000	      5.97024013	      1.53274042	    151.03009575	     -0.29209467	      0.94952022	      0.74465287	     23.87796849	      8.65953028	    -27.82700752	    -29.22149251	     10.69857648	     -4.81549879	     13.63513251	    -13.18599690	      6.42709686	    -59.71403111	      3.29470696	      4.53540515	      0.07611178	     11.82030633	     -9.16782179
      2.14000000	      6.01438139	      1.57575763	    149.91762994	     -0.29661424	      0.95051539	      0.73668291	     22.94223298	      9.55968767	    -26.84627360	    -28.52300337	     10.86865249	     -4.81604088	     14.46672855	    -13.45406417	      7.02295399	    -59.31074610	      4.02110141	      3.54298506	      0.06636114	     11.86176925	     -8.90109736
      2.15000000	      6.06802582	      1.61563337	    148.80077342	     -0.30095979	      0.95146121	      0.72875802	     21.98355439	     10.44858857	    -25.81918568	    -27.78714354	     11.00937816	     -4.84219182	     15.26003950	    -13.73054104	      7.60044858	    -58.71769921	      4.79252950	      2.53719394	      0.05544670	     11.90297357	     -8.64092485
      2.16000000	      6.13808058	      1.63372265	    147.67011624	     -0.30516317	      0.95234953	      0.72084037	     21.00942396	     11.31573931	    -24.74348707	    -27.00734282	     11.11117985	     -4.89638875	     16.01905473	    -14.01046157	      8.12733546	    -57.93161622	      5.57475976	      1.53238895	      0.06705827	     11.93027603	     -8.38740813
      2.17000000	      6.21004488	      1.63348315	    146.52425340	     -0.30919179	      0.95317780	      0.71301839	     20.02514410	     12.15163591	    -23.58407087	    -26.21267781	     11.16570759	     -4.97829487	     16.74606053	    -14.26914330	      8.62762975	    -56.99225954	      6.33376447	      0.55196674	      0.07130702	     11.94758712	     -8.12237030
